<svg width="511" height="122" viewBox="0 0 511 122" fill="none" xmlns="http://www.w3.org/2000/svg">
<path d="M469.912 114.084C444.243 114.084 428.304 96.6356 428.304 70.6309C428.304 44.794 444.243 27.3457 469.912 27.3457C495.413 27.3457 510.848 44.794 510.848 70.6309C510.848 96.6356 495.413 114.084 469.912 114.084ZM469.912 97.9778C487.36 97.9778 493.4 89.4214 493.4 70.6309C493.4 52.0082 487.36 43.4518 469.912 43.4518C452.296 43.4518 446.088 52.0082 446.088 70.6309C446.088 89.4214 452.296 97.9778 469.912 97.9778Z" fill="#F1EEE6"/>
<path d="M420.707 18.4549H402.755L402.588 0H420.707V18.4549ZM420.875 112.407H402.755V28.5213H420.875V112.407Z" fill="#F1EEE6"/>
<path d="M367.329 112.406H344.512L311.125 29.0234H331.258L355.585 95.1257H356.76L381.254 29.0234H400.884L367.329 112.406Z" fill="#F1EEE6"/>
<path d="M283.068 112.406H260.251L226.865 29.0234H246.997L271.324 95.1257H272.499L296.994 29.0234H316.623L283.068 112.406Z" fill="#F1EEE6"/>
<path d="M177.732 114.084C162.8 114.084 151.224 106.366 151.224 91.7702C151.224 78.0129 161.29 70.7987 179.074 68.2821L208.266 63.92V59.3902C208.266 46.9751 202.562 43.2841 189.476 43.2841C176.222 43.2841 171.021 47.4784 171.021 58.5513V61.0679H153.573V59.3902C153.573 40.7675 168.169 27.3457 190.483 27.3457C213.803 27.3457 225.547 41.4386 225.547 61.739V112.406H208.77V99.32H207.931C203.065 107.205 193.502 114.084 177.732 114.084ZM168.84 90.428C168.84 96.9711 173.034 99.6555 183.604 99.6555C195.348 99.6555 208.266 94.9579 208.266 78.1807V76.6707L181.758 80.6972C172.195 82.0394 168.84 84.2205 168.84 90.428Z" fill="#F1EEE6"/>
<rect x="71.2446" y="84.3926" width="37.4969" height="37.4969" rx="5.74775" fill="white"/>
<rect x="35.6216" y="46.8926" width="37.4969" height="37.4969" rx="5.74775" fill="white"/>
<rect x="71.2441" y="9.27148" width="37.4969" height="37.4969" rx="5.74775" fill="white"/>
<rect y="84.3926" width="37.4969" height="37.4969" rx="5.74775" fill="white"/>
</svg>
